<?xml version="1.0" standalone="no"?>
<!DOCTYPE svg PUBLIC "-//W3C//DTD SVG 20010904//EN"
 "http://www.w3.org/TR/2001/REC-SVG-20010904/DTD/svg10.dtd">
<svg version="1.0" xmlns="http://www.w3.org/2000/svg"
 width="1109.000000pt" height="1280.000000pt" viewBox="0 0 1109.000000 1280.000000"
 preserveAspectRatio="xMidYMid meet">
<metadata>
Created by potrace 1.15, written by Peter Selinger 2001-2017
</metadata>
<g transform="translate(0.000000,1280.000000) scale(0.100000,-0.100000)"
fill="white" stroke="none">
<path d="M5477 12769 c-27 -16 -53 -27 -58 -24 -5 4 -17 1 -26 -5 -15 -9 -14
-10 7 -4 34 9 26 3 -48 -41 -34 -20 -67 -33 -74 -29 -7 5 -8 3 -3 -6 6 -10 4
-12 -8 -7 -9 3 -19 1 -23 -5 -5 -7 -2 -8 7 -4 8 4 5 0 -6 -8 -11 -9 -25 -14
-33 -11 -8 3 -10 0 -6 -7 5 -8 2 -9 -10 -5 -10 4 -15 3 -11 -3 7 -12 -32 -33
-47 -24 -7 5 -8 3 -3 -6 5 -8 3 -11 -6 -8 -14 5 -69 -17 -69 -28 0 -2 14 2 30
11 17 9 30 14 30 11 0 -11 -352 -206 -362 -200 -7 5 -8 3 -3 -6 6 -9 4 -12 -7
-8 -8 4 -21 2 -29 -4 -11 -8 -9 -8 6 -4 20 6 20 6 0 -9 -11 -9 -25 -13 -33
-10 -8 3 -10 0 -6 -7 5 -8 2 -9 -10 -5 -9 4 -15 3 -12 -2 8 -12 -412 -253
-426 -245 -7 5 -8 3 -3 -6 6 -10 4 -12 -9 -7 -10 4 -15 3 -11 -3 7 -12 -32
-33 -47 -24 -7 5 -8 3 -3 -6 6 -10 4 -12 -9 -7 -10 4 -15 3 -11 -3 8 -12 -52
-43 -67 -34 -6 4 -8 3 -5 -3 9 -14 -340 -216 -355 -207 -7 5 -8 3 -3 -6 6 -9
4 -12 -7 -8 -8 4 -21 2 -29 -4 -11 -8 -9 -8 6 -4 20 6 20 6 0 -9 -11 -9 -25
-13 -33 -10 -8 3 -10 0 -6 -7 5 -8 2 -9 -10 -5 -9 4 -15 3 -12 -2 8 -12 -342
-213 -356 -205 -6 4 -8 3 -5 -3 8 -13 -50 -46 -65 -37 -7 5 -8 3 -3 -6 6 -10
4 -12 -9 -7 -10 4 -15 3 -11 -3 8 -12 -52 -43 -67 -34 -6 4 -8 3 -5 -3 9 -14
-340 -216 -355 -207 -6 4 -8 3 -5 -3 8 -13 -50 -46 -65 -37 -7 5 -8 3 -3 -6 5
-8 3 -11 -6 -8 -14 5 -69 -17 -69 -28 0 -2 13 2 30 11 46 24 36 10 -12 -17
-24 -13 -119 -68 -211 -121 -92 -54 -173 -95 -179 -91 -6 4 -8 3 -5 -3 7 -12
-49 -46 -63 -38 -6 4 -9 2 -8 -4 4 -14 -361 -223 -375 -214 -5 3 -7 2 -4 -4 8
-13 -50 -46 -65 -37 -6 4 -8 3 -5 -3 8 -13 -50 -46 -65 -37 -7 5 -8 3 -3 -6 6
-9 4 -12 -6 -8 -9 3 -58 -18 -110 -48 -52 -30 -89 -54 -84 -54 6 0 24 8 40 18
67 40 149 84 140 75 -25 -25 -347 -203 -357 -197 -6 4 -8 3 -5 -3 8 -13 -50
-46 -65 -37 -7 5 -8 3 -3 -6 6 -10 4 -12 -9 -7 -10 4 -15 3 -11 -3 6 -10 -33
-35 -42 -26 -6 6 -63 -21 -63 -30 0 -2 15 3 33 12 75 38 0 -10 -166 -105 -98
-56 -183 -99 -189 -95 -7 5 -8 3 -3 -6 6 -10 4 -12 -8 -7 -9 3 -19 1 -23 -5
-5 -7 -2 -8 7 -4 8 4 5 0 -6 -8 -11 -9 -25 -14 -33 -11 -8 3 -10 0 -6 -7 5 -8
2 -9 -10 -5 -10 4 -15 3 -11 -3 3 -5 -3 -14 -14 -19 -26 -14 -34 -14 -25 1 4
7 3 8 -5 4 -6 -4 -9 -11 -6 -15 6 -11 -382 -234 -394 -226 -5 3 -13 0 -17 -6
-5 -8 -2 -10 7 -5 8 4 5 0 -6 -8 -11 -9 -25 -14 -33 -11 -8 3 -10 0 -6 -7 5
-8 2 -9 -10 -5 -9 4 -15 3 -12 -2 7 -11 -102 -74 -114 -66 -6 4 -9 -1172 -7
-3225 l2 -3231 62 -35 c35 -19 63 -33 63 -30 0 3 -28 21 -62 40 -35 20 -59 36
-54 36 18 0 185 -103 180 -111 -3 -5 3 -6 12 -2 13 5 15 3 9 -7 -5 -9 -4 -11
3 -6 15 9 73 -24 65 -37 -3 -6 -1 -7 5 -3 15 9 73 -24 65 -37 -3 -6 -1 -7 5
-3 15 9 294 -153 285 -167 -3 -6 -1 -7 5 -3 11 6 72 -19 72 -30 0 -2 -14 2
-30 11 -17 9 -30 13 -30 11 0 -11 55 -33 69 -28 9 3 11 0 6 -8 -5 -8 -4 -11 3
-6 15 9 434 -233 425 -247 -3 -6 -1 -7 5 -3 15 9 75 -22 67 -34 -4 -6 1 -7 11
-3 13 5 15 3 9 -7 -5 -9 -4 -11 3 -6 15 9 102 -42 102 -59 0 -7 7 -16 16 -19
26 -10 29 -7 8 10 -22 18 -2 8 153 -80 57 -32 101 -62 98 -66 -3 -5 0 -12 6
-16 8 -4 9 -3 5 4 -9 15 -1 15 25 1 11 -5 16 -15 13 -21 -4 -7 -3 -8 4 -4 6 4
25 0 42 -9 34 -18 41 -31 7 -15 -20 10 -21 10 -4 -4 11 -8 26 -12 35 -9 11 5
13 3 7 -7 -5 -9 -4 -11 3 -6 14 8 434 -233 426 -245 -3 -5 3 -6 12 -2 12 4 15
3 10 -5 -4 -7 -2 -10 6 -7 8 3 22 -1 33 -10 20 -15 20 -15 0 -9 -15 4 -17 4
-6 -4 8 -6 21 -8 29 -4 11 4 13 1 7 -8 -5 -9 -4 -11 3 -6 15 9 102 -42 102
-59 0 -7 7 -16 16 -19 26 -10 29 -7 8 10 -23 19 6 4 178 -95 70 -41 125 -77
122 -82 -3 -5 3 -6 12 -2 13 5 15 3 9 -7 -5 -9 -4 -11 3 -6 15 9 73 -24 65
-37 -3 -6 -1 -7 5 -3 13 8 378 -201 374 -215 -1 -6 2 -8 8 -4 14 8 70 -26 63
-38 -3 -6 -1 -7 5 -3 15 9 102 -42 102 -59 0 -7 7 -16 16 -19 26 -10 29 -7 8
10 -22 18 -2 8 153 -80 57 -32 101 -62 98 -66 -3 -5 0 -12 6 -16 8 -4 9 -3 5
4 -10 17 7 15 30 -3 19 -15 19 -15 -1 -9 -15 4 -17 4 -6 -4 8 -6 21 -8 29 -4
11 4 13 1 7 -8 -5 -9 -4 -11 3 -6 15 9 143 -65 135 -77 -3 -6 -1 -7 5 -3 13 8
378 -201 374 -215 -1 -6 2 -8 8 -4 14 8 70 -26 63 -38 -3 -6 -1 -7 5 -3 15 9
364 -193 355 -207 -3 -6 -1 -7 5 -3 6 4 25 0 42 -9 33 -17 40 -28 13 -19 -14
5 -15 4 -4 -4 8 -6 21 -8 29 -4 10 3 13 1 8 -6 -4 -7 -2 -10 6 -7 8 3 22 -2
33 -11 11 -8 14 -12 6 -8 -9 4 -12 3 -7 -4 4 -6 14 -8 23 -5 12 5 14 3 8 -7
-5 -9 -4 -11 3 -6 14 8 364 -193 356 -205 -3 -5 3 -6 12 -2 13 5 15 3 9 -7 -5
-9 -4 -11 3 -6 15 9 54 -12 47 -24 -4 -6 1 -7 11 -3 13 5 15 3 9 -7 -5 -9 -4
-11 3 -6 7 4 66 -25 133 -63 66 -39 126 -71 134 -71 8 0 68 32 134 71 67 38
126 67 133 63 7 -5 8 -3 3 6 -6 10 -4 12 9 7 10 -4 15 -3 11 3 -7 12 32 33 47
24 7 -5 8 -3 3 6 -6 10 -4 12 9 7 9 -4 15 -3 12 2 -8 12 342 213 356 205 7 -5
8 -3 3 6 -6 10 -4 12 8 7 9 -3 19 -1 23 5 5 7 2 8 -7 4 -8 -4 -5 0 6 8 11 9
25 14 33 11 8 -3 10 0 6 7 -5 8 -2 9 10 5 10 -4 15 -3 11 3 -3 5 3 14 14 19
26 14 34 14 25 -1 -4 -7 -3 -8 5 -4 6 4 9 11 6 16 -3 4 41 34 98 66 155 88
175 98 153 80 -11 -9 -16 -16 -10 -16 15 0 30 14 37 34 5 11 13 16 23 12 8 -3
13 -2 10 2 -7 12 52 44 66 36 6 -4 8 -3 5 3 -7 12 49 46 63 38 6 -4 9 -2 8 4
-4 14 361 223 374 215 6 -4 8 -3 5 3 -8 12 120 86 135 77 7 -5 8 -3 3 6 -6 9
-4 12 7 8 8 -4 21 -2 29 4 11 8 9 8 -6 4 -20 -6 -20 -6 -1 9 23 18 40 20 30 3
-4 -7 -3 -8 5 -4 6 4 9 11 6 16 -4 7 89 63 235 143 29 16 32 16 15 2 -18 -16
-18 -17 -2 -11 10 3 21 6 23 6 2 0 4 6 4 14 0 19 87 69 103 60 6 -4 9 -3 4 1
-4 5 5 17 20 27 33 21 47 23 37 6 -4 -8 -3 -10 2 -5 5 5 9 13 9 18 0 14 365
220 377 213 6 -4 8 -3 5 3 -8 13 50 46 65 37 7 -5 8 -3 3 6 -6 10 -4 12 9 7
10 -4 15 -3 11 3 -3 5 3 14 14 19 26 14 34 14 25 -1 -4 -8 -3 -10 2 -5 5 5 9
13 9 18 0 7 187 120 250 150 l20 10 -20 -17 c-18 -15 -18 -16 -2 -10 10 3 21
6 23 6 2 0 4 6 4 14 0 18 87 69 102 60 7 -5 8 -3 3 6 -6 9 -4 12 7 8 8 -4 21
-2 29 4 11 8 9 8 -6 4 -20 -6 -20 -6 0 9 11 9 25 13 33 10 8 -3 10 0 6 7 -5 8
-2 9 10 5 9 -4 15 -3 12 2 -8 12 412 253 426 245 7 -5 8 -3 3 6 -6 10 -4 12 7
7 9 -3 24 1 35 9 17 14 16 14 -4 4 -34 -16 -27 -3 7 15 17 9 36 13 42 9 7 -4
8 -3 4 4 -3 6 2 16 13 21 26 14 34 14 25 -1 -4 -7 -3 -8 5 -4 6 4 9 11 6 16
-4 7 89 63 235 143 29 16 32 16 15 2 -18 -16 -18 -17 -2 -11 10 3 21 6 23 6 2
0 4 6 4 14 0 18 87 69 102 60 7 -5 8 -3 3 6 -6 10 -4 12 9 7 10 -4 15 -3 11 3
-8 12 52 43 67 34 6 -4 8 -3 5 3 -9 14 410 256 425 247 7 -5 8 -2 3 6 -5 8 -3
11 6 8 14 -5 69 17 69 28 0 2 -13 -2 -30 -11 -16 -9 -30 -13 -30 -11 0 11 61
36 72 30 6 -4 8 -3 5 3 -9 14 270 176 285 167 6 -4 8 -3 5 3 -8 13 50 46 65
37 6 -4 8 -3 5 3 -8 13 50 46 65 37 7 -5 8 -3 3 6 -6 10 -4 12 9 7 9 -4 15 -3
12 2 -5 8 162 111 180 111 5 0 -19 -16 -53 -36 -35 -19 -63 -37 -63 -40 0 -3
28 11 63 30 l62 35 2 3230 3 3231 -33 15 c-28 14 -30 14 -13 0 11 -8 24 -15
30 -15 5 0 7 -3 4 -6 -9 -8 -119 57 -112 67 3 5 -3 6 -12 2 -12 -4 -15 -3 -10
5 4 7 2 10 -6 7 -8 -3 -22 2 -33 11 -11 8 -14 12 -6 8 9 -5 12 -3 7 5 -4 6
-12 9 -17 5 -13 -7 -450 246 -443 257 3 5 -3 6 -12 2 -12 -4 -15 -3 -10 5 4 7
2 10 -6 7 -8 -3 -22 2 -33 11 -11 8 -14 12 -6 8 9 -4 12 -3 7 4 -4 6 -14 8
-23 5 -12 -5 -14 -3 -8 7 5 9 4 11 -3 6 -6 -4 -91 39 -189 95 -166 95 -241
143 -165 105 17 -9 32 -14 32 -12 0 9 -57 36 -63 30 -9 -9 -48 16 -42 26 4 6
-1 7 -11 3 -13 -5 -15 -3 -9 7 5 9 4 11 -3 6 -15 -9 -73 24 -65 37 3 6 1 7 -5
3 -10 -6 -332 172 -357 197 -9 9 73 -35 140 -75 17 -10 35 -18 40 -18 6 0 -32
24 -84 54 -52 30 -101 51 -110 48 -10 -4 -12 -1 -6 8 5 9 4 11 -3 6 -15 -9
-73 24 -65 37 3 6 1 7 -5 3 -15 -9 -73 24 -65 37 3 6 1 7 -4 4 -10 -6 -335
172 -358 196 -9 9 72 -34 140 -75 17 -10 35 -18 40 -18 6 0 -32 24 -84 54 -52
30 -101 51 -110 48 -10 -4 -12 -1 -6 8 5 9 4 11 -3 6 -15 -9 -73 24 -65 37 3
6 1 7 -5 3 -6 -4 -87 37 -179 91 -92 53 -187 108 -210 121 -49 27 -59 41 -13
17 17 -9 30 -13 30 -11 0 11 -55 33 -69 28 -9 -3 -11 0 -6 8 5 9 4 11 -3 6
-15 -9 -73 24 -65 37 3 6 1 7 -5 3 -15 -9 -364 193 -355 207 3 6 1 7 -5 3 -15
-9 -75 22 -67 34 4 6 -1 7 -11 3 -13 -5 -15 -3 -9 7 5 9 4 11 -3 6 -15 -9 -73
24 -65 37 3 6 1 7 -5 3 -14 -8 -364 193 -356 205 3 5 -3 6 -12 2 -12 -4 -15
-3 -10 5 4 7 2 10 -6 7 -8 -3 -22 1 -33 10 -20 15 -20 15 0 9 15 -4 17 -4 6 4
-8 6 -21 8 -29 4 -11 -4 -13 -1 -7 8 5 9 4 11 -3 6 -15 -9 -73 24 -65 37 3 6
1 7 -5 3 -12 -7 -307 159 -307 173 0 5 -4 13 -9 18 -5 5 -6 3 -2 -4 9 -16 1
-16 -25 -2 -11 5 -17 14 -14 19 4 6 -1 7 -11 3 -13 -5 -15 -3 -9 7 5 9 4 11
-3 6 -15 -9 -54 12 -47 24 4 6 -1 7 -11 3 -13 -5 -15 -3 -9 7 5 9 4 11 -3 6
-14 -8 -434 233 -426 245 3 5 -3 6 -12 2 -12 -4 -15 -3 -10 5 4 7 2 10 -6 7
-8 -3 -22 1 -33 10 -20 15 -20 15 0 9 15 -4 17 -4 6 4 -8 6 -21 8 -29 4 -10
-3 -13 -1 -8 6 4 7 2 10 -6 7 -7 -3 -26 4 -43 15 -16 11 -25 20 -19 20 5 0 16
-6 24 -12 12 -11 12 -10 0 5 -7 10 -19 16 -27 13 -12 -5 -293 149 -293 160 0
3 14 -2 30 -11 17 -9 30 -13 30 -11 0 11 -55 33 -69 28 -9 -3 -11 0 -6 8 5 9
4 11 -3 6 -15 -9 -54 12 -47 24 4 6 -1 7 -11 3 -12 -4 -15 -3 -10 5 4 7 2 10
-6 7 -8 -3 -22 2 -33 11 -11 8 -14 12 -6 8 9 -4 12 -3 7 4 -4 6 -14 8 -23 5
-12 -5 -14 -3 -8 7 5 9 4 11 -3 6 -7 -4 -66 25 -133 63 -66 39 -128 71 -137
70 -9 0 -39 -14 -65 -30z m270 -658 c90 -51 160 -97 157 -102 -3 -5 3 -6 12
-2 13 5 15 3 9 -7 -5 -9 -4 -11 3 -6 15 9 73 -24 65 -37 -3 -6 -1 -7 5 -3 12
7 307 -159 307 -173 0 -5 4 -13 9 -18 5 -5 6 -3 2 5 -9 15 -1 15 25 1 11 -5
16 -15 13 -21 -4 -7 -3 -8 4 -4 15 9 75 -22 67 -34 -4 -6 1 -7 11 -3 13 5 15
3 9 -7 -5 -9 -4 -11 3 -6 15 9 73 -24 65 -37 -3 -6 -1 -7 5 -3 13 8 434 -233
426 -245 -3 -5 3 -6 12 -2 13 5 15 3 9 -7 -5 -9 -4 -11 3 -6 14 8 73 -24 66
-36 -3 -4 2 -5 10 -2 10 4 18 -1 23 -12 7 -20 22 -34 37 -34 6 0 1 7 -10 16
-27 22 -15 16 119 -61 69 -39 114 -71 111 -77 -4 -7 -2 -8 4 -4 15 9 95 -32
87 -44 -3 -5 0 -7 7 -5 8 3 22 -2 33 -11 11 -8 14 -12 6 -8 -9 4 -12 3 -7 -4
4 -6 14 -8 23 -5 12 5 14 3 8 -7 -5 -8 -4 -11 3 -6 13 8 358 -190 355 -203 -2
-6 5 -7 14 -4 12 5 14 3 8 -7 -5 -9 -4 -11 3 -6 15 9 54 -12 47 -24 -4 -6 1
-7 11 -3 13 5 15 3 9 -7 -5 -9 -4 -11 3 -6 14 8 314 -163 307 -174 -3 -5 0
-12 6 -16 8 -4 9 -3 5 4 -11 19 3 14 60 -19 30 -17 52 -35 49 -40 -4 -5 2 -6
11 -2 13 5 15 3 9 -7 -5 -9 -4 -11 3 -6 15 9 54 -12 47 -24 -4 -6 1 -7 11 -3
13 5 15 3 9 -7 -5 -9 -4 -11 3 -6 6 4 103 -46 214 -110 185 -106 262 -155 198
-125 -23 11 -23 11 -7 -3 11 -8 26 -12 35 -9 10 4 13 2 8 -5 -4 -7 -2 -10 6
-7 8 3 22 -2 33 -11 18 -14 18 -15 2 -10 -11 4 -16 2 -12 -5 4 -5 16 -7 27 -3
15 4 18 3 13 -6 -5 -9 -4 -11 3 -6 15 9 73 -24 65 -37 -3 -6 -1 -7 5 -3 6 4
87 -37 179 -90 157 -91 222 -132 163 -105 -23 11 -23 11 -7 -3 11 -8 26 -12
35 -9 11 5 13 3 7 -7 -5 -9 -4 -11 3 -6 15 9 73 -24 65 -37 -3 -6 -1 -7 5 -3
15 9 73 -24 65 -37 -3 -6 -1 -7 5 -3 15 9 294 -153 285 -167 -3 -6 -1 -7 5 -3
16 10 94 -32 86 -46 -4 -7 -3 -8 4 -4 15 9 73 -24 65 -37 -3 -6 -1 -7 5 -3 15
9 102 -42 102 -60 0 -8 2 -14 4 -14 2 0 13 -3 23 -6 16 -6 16 -5 -2 11 -17 14
-15 14 15 -2 158 -85 378 -219 373 -226 -3 -6 -1 -7 5 -3 6 4 21 2 33 -5 17
-9 19 -13 8 -20 -10 -6 -11 -9 -1 -9 18 0 18 -5800 0 -5800 -10 0 -10 -2 -1
-8 8 -5 -20 -27 -78 -60 -49 -29 -95 -50 -101 -46 -6 4 -8 3 -5 -3 8 -13 -50
-46 -65 -37 -7 5 -8 3 -3 -6 6 -10 4 -12 -9 -7 -9 4 -15 3 -12 -2 8 -12 -413
-253 -426 -245 -6 4 -8 3 -5 -3 8 -13 -50 -46 -65 -37 -7 5 -8 3 -3 -6 6 -10
4 -12 -9 -7 -10 4 -15 3 -11 -3 7 -12 -32 -33 -47 -24 -6 4 -8 3 -5 -3 8 -13
-360 -226 -375 -217 -7 5 -8 2 -3 -6 6 -10 4 -12 -9 -7 -10 4 -15 3 -11 -3 7
-12 -32 -33 -47 -24 -7 5 -8 3 -3 -6 6 -10 4 -12 -9 -7 -10 4 -15 3 -11 -3 7
-12 -32 -33 -47 -24 -6 4 -8 3 -5 -3 8 -13 -360 -226 -375 -217 -7 5 -8 2 -3
-6 6 -10 4 -12 -9 -7 -10 4 -15 3 -11 -3 7 -12 -32 -33 -47 -24 -7 5 -8 3 -3
-6 6 -10 4 -12 -9 -7 -9 4 -15 3 -12 -2 8 -12 -412 -253 -426 -245 -7 5 -8 2
-3 -6 6 -10 4 -12 -9 -7 -10 4 -15 3 -11 -3 3 -5 -3 -14 -14 -19 -26 -14 -34
-14 -25 1 4 7 3 8 -5 4 -6 -4 -9 -11 -6 -15 6 -10 -452 -274 -463 -267 -4 2
-14 0 -22 -6 -12 -8 -12 -9 3 -4 27 9 20 -2 -13 -19 -17 -9 -36 -13 -42 -9 -6
4 -8 3 -5 -4 8 -11 -427 -267 -441 -258 -4 2 -14 0 -22 -6 -12 -8 -11 -8 5 -3
36 12 3 -10 -145 -95 -160 -92 -174 -99 -146 -76 21 17 18 20 -8 10 -9 -3 -16
-12 -16 -19 0 -17 -157 -108 -172 -99 -6 4 -8 3 -5 -3 8 -13 -360 -226 -375
-217 -6 4 -8 3 -5 -3 8 -13 -50 -46 -65 -37 -6 4 -8 3 -5 -3 8 -12 -431 -266
-445 -257 -7 5 -8 2 -3 -6 6 -10 4 -12 -9 -7 -10 4 -15 3 -11 -3 7 -12 -32
-33 -47 -24 -7 5 -8 3 -3 -6 6 -10 4 -12 -9 -7 -10 4 -15 3 -11 -3 7 -12 -32
-33 -47 -24 -6 4 -8 3 -5 -4 6 -9 -148 -105 -168 -105 -20 0 -174 96 -168 105
3 7 1 8 -5 4 -15 -9 -54 12 -47 24 4 6 -1 7 -11 3 -13 -5 -15 -3 -9 7 5 9 4
11 -3 6 -15 -9 -54 12 -47 24 4 6 -1 7 -11 3 -13 -5 -15 -3 -9 7 5 8 4 11 -3
6 -14 -9 -453 245 -445 257 3 6 1 7 -5 3 -15 -9 -73 24 -65 37 3 6 1 7 -5 3
-15 -9 -383 204 -375 217 3 6 1 7 -5 3 -14 -8 -143 64 -136 76 3 4 -2 5 -10 2
-10 -4 -18 1 -23 12 -7 20 -22 34 -37 34 -6 0 -1 -7 10 -16 28 -23 13 -15
-128 66 -70 40 -125 76 -123 81 3 4 0 11 -6 15 -8 4 -9 3 -5 -4 10 -17 -7 -15
-30 3 -19 15 -19 15 1 9 16 -5 17 -4 5 4 -8 6 -18 8 -22 6 -14 -9 -449 247
-441 258 3 7 1 8 -5 4 -16 -10 -94 32 -86 46 4 7 3 8 -4 4 -15 -9 -143 65
-135 77 3 6 1 7 -4 4 -15 -10 -295 152 -287 165 4 7 2 8 -4 4 -15 -9 -75 22
-67 34 4 6 -1 7 -11 3 -13 -5 -15 -3 -9 7 5 8 4 11 -3 6 -14 -8 -434 233 -426
245 3 5 -3 6 -12 2 -13 -5 -15 -3 -9 7 5 9 4 11 -3 6 -15 -9 -54 12 -47 24 4
6 -1 7 -11 3 -13 -5 -15 -3 -9 7 5 9 4 11 -3 6 -15 -9 -73 24 -65 37 3 6 1 7
-5 3 -14 -8 -308 161 -304 175 1 6 -2 8 -8 4 -13 -8 -52 14 -45 25 4 6 -1 7
-11 3 -13 -5 -15 -3 -9 7 5 9 4 11 -3 6 -15 -9 -54 12 -47 24 4 6 -1 7 -11 3
-13 -5 -15 -3 -9 7 5 8 4 11 -3 6 -14 -8 -384 203 -376 215 3 5 -1 6 -8 4 -8
-3 -22 2 -33 10 -19 15 -19 16 5 5 23 -10 24 -10 7 4 -11 8 -26 12 -35 9 -11
-5 -13 -3 -7 7 5 9 4 11 -3 6 -15 -9 -73 24 -65 37 3 6 1 7 -5 3 -13 -8 -434
233 -426 245 3 5 -3 6 -12 2 -13 -5 -15 -3 -9 7 5 9 4 11 -3 6 -15 -9 -73 24
-65 37 3 6 1 7 -5 3 -7 -4 -52 17 -102 45 -59 35 -85 56 -77 61 9 6 9 8 0 8
-10 0 -13 587 -13 2900 0 2313 3 2900 13 2900 9 0 8 3 -2 9 -11 7 -9 11 8 20
12 7 27 9 33 5 6 -4 8 -3 5 3 -3 5 72 54 166 108 215 124 248 142 223 121 -21
-17 -18 -20 8 -10 9 3 16 12 16 19 0 17 87 68 102 59 6 -4 8 -3 5 3 -8 13 50
46 65 37 7 -4 8 -3 4 4 -8 14 70 56 86 46 6 -4 8 -3 5 3 -9 14 270 176 285
167 6 -4 8 -3 5 3 -8 13 50 46 65 37 6 -4 8 -3 5 3 -8 13 50 46 65 37 7 -5 8
-3 3 6 -6 10 -4 12 7 7 9 -3 24 1 35 9 16 14 16 14 -7 3 -59 -27 6 14 163 105
92 53 173 94 179 90 6 -4 8 -3 5 3 -8 13 50 46 65 37 7 -5 8 -3 3 6 -5 9 -2
10 13 6 11 -4 23 -2 27 3 4 7 -1 9 -12 5 -16 -5 -16 -4 2 10 11 9 25 14 33 11
8 -3 10 0 6 7 -5 7 -2 9 8 5 9 -3 24 1 35 9 16 14 16 14 -7 3 -64 -30 13 19
198 125 111 64 208 114 214 110 7 -5 8 -3 3 6 -6 10 -4 12 9 7 10 -4 15 -3 11
3 -7 12 32 33 47 24 7 -5 8 -3 3 6 -6 10 -4 12 9 7 9 -4 15 -3 11 2 -3 5 19
23 49 40 57 33 71 38 60 19 -4 -7 -3 -8 5 -4 6 4 9 11 6 16 -7 11 293 182 307
174 7 -5 8 -3 3 6 -6 10 -4 12 9 7 10 -4 15 -3 11 3 -7 12 32 33 47 24 7 -5 8
-3 3 6 -6 10 -4 12 9 7 9 -4 15 -3 12 2 -8 12 342 213 356 205 7 -5 8 -3 3 6
-6 10 -4 12 8 7 9 -3 19 -1 23 5 5 7 2 8 -7 4 -8 -4 -5 0 6 8 11 9 25 14 33
11 7 -2 10 0 7 5 -8 12 72 53 87 44 6 -4 8 -3 4 4 -3 6 42 38 111 77 134 77
146 83 119 61 -11 -9 -16 -16 -10 -16 15 0 30 14 37 34 5 11 13 16 23 12 8 -3
13 -2 10 2 -7 12 52 44 66 36 7 -5 8 -3 3 6 -6 10 -4 12 9 7 9 -4 15 -3 12 2
-8 12 413 253 426 245 6 -4 8 -3 5 3 -8 13 50 46 65 37 7 -5 8 -3 3 6 -6 10
-4 12 9 7 10 -4 15 -3 11 3 -8 12 52 43 67 34 7 -4 8 -3 4 4 -3 6 2 16 13 21
26 14 34 14 25 -1 -4 -8 -3 -10 2 -5 5 5 9 13 9 18 0 14 295 180 307 173 6 -4
8 -3 5 3 -8 13 50 46 65 37 7 -5 8 -3 3 6 -6 10 -4 12 8 7 9 -3 16 -2 14 3 -1
5 79 57 178 114 159 92 182 103 200 92 11 -7 93 -54 182 -105z"/>
<path d="M5860 8470 c-41 -3 -85 -12 -98 -19 -12 -6 -27 -9 -32 -6 -5 3 -12 0
-16 -6 -5 -8 -2 -10 7 -5 8 4 5 1 -5 -8 -10 -8 -22 -13 -26 -11 -4 2 -18 -8
-31 -23 l-24 -27 30 25 30 25 -24 -27 c-14 -16 -32 -28 -40 -28 -14 0 -14 -1
-1 -10 13 -8 13 -10 -2 -10 -9 0 -20 -5 -24 -12 -5 -7 -2 -9 9 -5 14 5 14 2 2
-26 -7 -18 -27 -107 -46 -199 -26 -131 -36 -168 -48 -168 -13 0 -13 -2 -2 -9
7 -5 11 -17 7 -27 -3 -11 -7 -30 -10 -44 -2 -14 -14 -74 -25 -134 -20 -103
-31 -139 -31 -105 0 11 -2 11 -10 -1 -13 -20 -13 -33 0 -25 14 9 14 7 -22
-172 -25 -127 -35 -163 -47 -163 -13 0 -13 -2 -3 -9 12 -7 8 -35 -18 -157 -17
-82 -36 -175 -42 -208 -6 -32 -14 -53 -18 -46 -5 8 -9 8 -13 -4 -3 -8 -1 -16
5 -18 8 -3 4 -41 -12 -121 -18 -89 -28 -117 -39 -117 -13 0 -13 -2 -3 -9 11
-7 6 -43 -24 -192 -20 -101 -41 -186 -46 -187 -4 -2 -6 -8 -3 -13 3 -4 -11
-92 -32 -194 -29 -143 -41 -185 -53 -185 -12 0 -12 -2 -1 -9 7 -5 11 -17 7
-27 -3 -11 -7 -30 -10 -44 -20 -121 -41 -210 -48 -210 -5 0 -7 -4 -4 -9 4 -5
-10 -93 -31 -195 -29 -146 -40 -186 -52 -186 -13 0 -13 -2 -3 -9 11 -6 8 -35
-15 -150 -16 -78 -33 -138 -38 -134 -4 5 -5 2 -1 -5 4 -7 1 -47 -8 -90 -15
-79 -26 -229 -16 -211 4 5 12 -2 18 -15 10 -22 9 -24 -5 -19 -11 4 -14 3 -9
-5 4 -7 15 -12 24 -12 15 0 15 -2 2 -10 -13 -9 -13 -10 1 -10 8 0 26 -12 40
-28 l24 -27 -30 25 -30 25 24 -27 c14 -16 26 -26 29 -23 9 9 42 -16 36 -27 -4
-6 -3 -8 3 -5 6 4 30 0 53 -8 94 -33 208 -6 274 63 16 17 33 29 37 26 4 -2 10
0 14 6 3 5 1 10 -5 10 -6 0 -8 5 -5 10 4 6 11 7 17 4 7 -5 9 -1 5 9 -4 11 -1
17 7 17 8 0 17 7 20 16 10 26 6 30 -10 9 -15 -19 -15 -19 -8 10 4 17 10 31 14
33 5 2 6 13 3 25 -3 16 -2 18 5 9 7 -11 10 -10 16 3 8 23 8 27 -4 20 -14 -9
-14 -7 22 173 25 125 36 162 47 163 11 0 12 2 4 6 -18 7 -16 33 2 33 8 0 15 5
15 11 0 5 -4 7 -10 4 -5 -3 -10 -1 -10 6 0 29 64 324 71 327 4 2 6 9 3 15 -7
19 51 288 61 280 4 -5 5 -3 1 4 -12 22 5 93 23 93 12 0 13 2 3 9 -8 5 -11 17
-7 33 3 13 7 31 9 39 20 116 41 209 48 209 5 0 6 4 3 10 -3 5 11 93 32 195 29
143 41 185 53 185 12 0 12 2 2 9 -12 7 -8 35 17 157 18 82 48 231 68 332 29
142 40 182 52 182 13 0 13 2 2 9 -11 7 -11 20 3 82 9 41 18 83 20 94 32 168
41 205 47 205 5 0 6 6 4 13 -8 19 50 289 60 280 4 -5 5 -3 1 4 -12 22 5 93 23
93 13 0 13 2 2 9 -7 5 -11 17 -7 27 3 11 8 34 11 51 3 18 14 79 25 135 13 65
18 118 14 145 -4 28 -3 43 5 43 6 0 8 7 5 15 -4 8 -12 15 -19 15 -8 0 -12 9
-9 23 2 12 2 16 -2 10 -4 -9 -14 -3 -30 17 -14 16 -23 34 -20 39 6 8 -62 61
-79 61 -5 0 10 -12 33 -27 23 -15 40 -29 38 -31 -2 -1 -21 8 -41 23 -21 14
-42 25 -47 25 -5 0 -7 4 -4 9 4 5 -4 7 -16 4 -19 -4 -20 -3 -8 6 8 6 11 10 5
9 -5 0 -44 -4 -85 -8z"/>
<path d="M3795 8049 c-22 -4 -49 -5 -60 -3 -14 4 -16 3 -7 -4 11 -7 10 -10 -3
-16 -9 -3 -21 -3 -26 0 -5 3 -8 0 -7 -7 2 -6 -3 -14 -11 -17 -9 -3 -11 0 -6 9
5 8 -4 3 -18 -10 -33 -30 -36 -41 -4 -16 12 11 -295 -299 -682 -687 -388 -389
-709 -704 -714 -701 -6 3 -7 1 -3 -5 4 -7 1 -12 -8 -12 -8 0 -18 -4 -21 -10
-4 -6 1 -7 11 -3 12 4 15 3 10 -5 -4 -7 -14 -12 -22 -12 -8 0 -14 -5 -14 -11
0 -5 4 -7 10 -4 5 3 3 -10 -5 -29 -17 -40 -20 -142 -5 -180 6 -17 6 -26 0 -26
-6 0 -10 -4 -10 -10 0 -5 7 -7 15 -4 15 6 20 -5 15 -36 -1 -8 2 -11 6 -7 4 4
337 -321 739 -722 708 -707 732 -730 784 -745 83 -24 120 -21 215 19 14 6 17
5 12 -3 -11 -18 0 -14 15 5 12 14 12 16 0 8 -10 -5 -12 -4 -7 4 4 6 15 10 24
9 9 -2 17 4 17 12 1 8 7 14 14 12 7 -1 10 1 7 6 -3 5 2 18 10 28 14 17 15 17
10 1 -3 -10 -2 -16 3 -13 5 3 11 15 14 26 3 11 1 18 -4 14 -5 -3 -6 2 -3 10 3
9 10 14 16 13 5 -1 14 9 19 23 8 21 7 22 -3 9 -11 -13 -13 -2 -13 65 0 91 -5
117 -24 140 -10 11 -10 16 -2 16 7 0 9 5 6 10 -4 6 -10 8 -14 6 -4 -3 -281
269 -617 605 l-609 609 225 225 c124 124 229 225 233 225 5 0 -93 -100 -217
-222 -124 -123 -226 -227 -226 -233 0 -5 135 125 300 290 185 185 298 305 295
314 -4 9 0 11 11 7 11 -4 15 -2 11 8 -4 11 -1 13 10 9 12 -5 15 -2 10 10 -4
12 -2 14 10 10 12 -5 15 -2 10 10 -4 12 -2 14 10 10 12 -5 15 -2 10 10 -4 12
-2 14 10 10 12 -5 15 -2 10 10 -4 12 -2 14 10 10 12 -5 15 -2 10 10 -4 12 -2
14 10 10 12 -5 15 -2 10 10 -4 12 -2 14 10 10 12 -5 15 -2 10 10 -4 12 -2 14
10 10 12 -5 15 -2 10 10 -4 12 -2 14 10 10 12 -5 15 -2 10 10 -4 12 -2 14 10
10 13 -5 15 -2 10 11 -6 14 -3 17 9 12 11 -4 15 -2 11 8 -7 18 38 60 54 50 9
-5 10 -2 6 10 -6 14 -3 17 9 12 12 -5 15 -2 10 10 -5 12 -2 15 10 10 12 -5 15
-2 10 10 -5 12 -2 15 10 10 12 -5 15 -2 10 10 -5 12 -2 15 10 10 11 -4 15 -2
11 8 -4 11 -1 13 10 9 12 -5 15 -2 10 10 -4 12 -2 14 10 10 12 -5 15 -2 10 10
-4 12 -2 14 10 10 13 -5 15 -2 10 11 -6 14 -3 17 9 12 12 -5 15 -2 10 10 -5
12 -2 15 10 10 12 -5 15 -2 10 10 -5 12 -2 15 10 10 12 -5 15 -2 10 10 -5 12
-2 15 10 10 12 -5 15 -2 10 10 -5 12 -2 15 10 10 12 -5 15 -2 10 10 -5 12 -2
15 10 10 11 -4 15 -2 11 8 -4 11 -1 13 10 9 12 -5 15 -2 11 8 -3 8 8 30 25 49
16 19 26 28 21 20 -7 -13 -6 -13 10 0 10 8 14 16 8 18 -7 2 -7 12 0 32 10 31
7 152 -6 185 -4 11 0 8 9 -7 20 -35 28 -36 15 -2 -18 46 -30 64 -45 64 -17 0
-37 34 -27 45 4 5 1 5 -6 1 -16 -10 -44 12 -35 28 3 6 3 8 -1 4 -4 -3 -26 2
-49 12 -54 23 -111 30 -162 19z"/>
<path d="M7119 8043 c-17 -10 -18 -12 -4 -8 45 16 58 15 25 -1 -19 -9 -40 -17
-47 -17 -7 0 -10 -4 -8 -8 8 -11 -23 -31 -36 -23 -8 4 -9 3 -5 -5 4 -6 -4 -25
-18 -42 -14 -17 -26 -27 -26 -23 0 4 7 16 17 26 9 10 14 21 11 24 -7 6 -42
-49 -57 -89 -13 -35 -6 -35 14 1 9 15 13 18 9 7 -13 -33 -16 -154 -5 -185 6
-18 6 -30 1 -30 -5 0 -7 -7 -4 -15 4 -8 12 -15 19 -15 7 0 19 -8 26 -17 13
-17 13 -17 -5 -3 -18 14 -19 14 -7 -7 7 -15 17 -20 28 -16 13 5 15 2 10 -11
-5 -13 -3 -17 7 -13 10 4 13 1 9 -9 -4 -10 0 -12 11 -8 12 5 15 2 10 -10 -5
-12 -2 -15 10 -10 12 5 15 2 10 -10 -5 -12 -2 -15 10 -10 12 5 15 2 10 -10 -5
-12 -2 -15 10 -10 12 5 15 2 10 -10 -5 -12 -2 -15 10 -10 12 5 15 2 10 -10 -5
-12 -2 -15 10 -10 12 5 15 2 10 -10 -5 -12 -2 -15 10 -10 12 5 15 2 10 -10 -5
-12 -2 -15 10 -10 12 5 15 2 9 -12 -5 -13 -3 -16 10 -11 12 4 14 2 10 -10 -5
-12 -2 -15 10 -10 12 4 14 2 10 -10 -5 -12 -2 -15 10 -10 11 4 14 2 10 -9 -4
-10 0 -12 11 -8 12 5 15 2 10 -10 -5 -12 -2 -15 10 -10 12 5 15 2 9 -12 -4
-12 -3 -15 6 -10 16 10 61 -32 54 -50 -4 -10 0 -12 11 -8 12 5 15 2 9 -12 -5
-13 -3 -16 10 -11 12 4 14 2 10 -10 -5 -12 -2 -15 10 -10 12 4 14 2 10 -10 -5
-12 -2 -15 10 -10 12 4 14 2 10 -10 -5 -12 -2 -15 10 -10 12 4 14 2 10 -10 -5
-12 -2 -15 10 -10 12 4 14 2 10 -10 -5 -12 -2 -15 10 -10 12 4 14 2 10 -10 -5
-12 -2 -15 10 -10 12 4 14 2 10 -10 -5 -12 -2 -15 10 -10 12 4 14 2 10 -10 -5
-12 -2 -15 10 -10 12 4 14 2 10 -10 -5 -12 -2 -15 10 -10 11 4 14 2 10 -9 -4
-10 0 -12 11 -8 11 4 15 2 11 -8 -3 -8 84 -102 230 -248 129 -129 235 -230
235 -226 0 5 -36 44 -81 87 -44 44 -77 79 -72 79 4 0 73 -65 153 -145 l145
-145 -609 -609 c-336 -336 -613 -608 -617 -605 -4 2 -10 0 -14 -6 -3 -5 -1
-10 6 -10 8 0 7 -6 -4 -17 -15 -18 -17 -22 -17 -43 0 -6 -5 -9 -11 -8 -6 2
-14 -3 -17 -11 -3 -8 0 -11 7 -7 8 5 11 -12 11 -58 0 -35 3 -73 6 -83 5 -16 4
-16 -10 1 -18 23 -21 14 -5 -15 5 -11 14 -17 18 -14 5 3 12 -2 15 -11 3 -8 2
-13 -3 -10 -5 4 -7 -4 -4 -15 4 -12 14 -24 24 -26 11 -3 16 -9 13 -14 -3 -5 0
-8 8 -7 7 2 12 -4 10 -12 -2 -8 0 -12 3 -8 10 10 47 -11 40 -22 -3 -5 0 -12 6
-16 8 -5 9 -3 4 6 -6 10 -4 11 11 5 95 -40 132 -43 215 -19 52 15 76 38 784
745 402 401 735 726 740 722 4 -4 5 0 2 9 -6 17 15 43 26 31 4 -3 7 -1 7 5 0
7 -4 12 -10 12 -6 0 -6 9 0 26 15 38 12 140 -5 180 -8 19 -10 32 -5 29 6 -3
10 -1 10 4 0 6 -6 11 -14 11 -8 0 -18 4 -21 10 -4 6 1 7 11 3 12 -4 15 -3 10
5 -4 7 -13 12 -19 12 -18 0 -1299 1285 -1290 1294 4 4 1 6 -7 4 -8 -1 -14 3
-12 10 1 6 -4 11 -10 10 -7 -2 -12 4 -10 12 2 8 0 12 -4 7 -9 -9 -85 63 -79
73 3 4 -3 14 -12 21 -14 12 -16 12 -9 0 6 -9 5 -12 -5 -9 -8 3 -13 11 -11 17
1 7 -2 10 -7 7 -5 -3 -17 -3 -26 0 -12 5 -13 9 -5 14 7 4 -1 7 -17 8 -15 0
-67 2 -114 5 -63 3 -93 0 -110 -10z"/>
</g>
</svg>
